<svg width="60" height="60" viewBox="0 0 60 60" fill="none" xmlns="http://www.w3.org/2000/svg">
<path d="M13.3712 15.7437C13.5221 16.066 13.7622 16.3386 14.0632 16.5296C14.3642 16.7206 14.7136 16.822 15.0704 16.822H24.1876V20.032C24.1876 20.5277 24.3851 21.0031 24.7367 21.3536C25.0884 21.7041 25.5653 21.901 26.0626 21.901C26.5598 21.901 27.0368 21.7041 27.3884 21.3536C27.74 21.0031 27.9376 20.5277 27.9376 20.032V16.822H28.8012C29.2985 16.822 29.7754 16.6251 30.1271 16.2746C30.4787 15.9241 30.6762 15.4487 30.6762 14.953C30.6762 14.4573 30.4787 13.982 30.1271 13.6315C29.7754 13.281 29.2985 13.084 28.8012 13.084H27.9376V1.86851C27.9375 1.48489 27.8189 1.11058 27.5981 0.796419C27.3772 0.482253 27.0647 0.243443 26.703 0.112408C26.3413 -0.0186266 25.9479 -0.0355377 25.5762 0.0639707C25.2045 0.163479 24.8726 0.374586 24.6254 0.668633L13.6325 13.7531C13.4035 14.0258 13.2572 14.3579 13.211 14.7105C13.1647 15.0631 13.2202 15.4215 13.3712 15.7437ZM24.1876 7.01143V13.0843H19.0858L24.1876 7.01143ZM33.6762 46.7114L43.4991 31.4248H36.2665C35.7692 31.4248 35.2923 31.2279 34.9407 30.8774C34.5891 30.5269 34.3915 30.0515 34.3915 29.5558C34.3915 29.0601 34.5891 28.5848 34.9407 28.2343C35.2923 27.8838 35.7692 27.6868 36.2665 27.6868H46.9267C47.2632 27.6868 47.5934 27.7771 47.8828 27.9481C48.1723 28.1191 48.4102 28.3646 48.5717 28.6589C48.7331 28.9531 48.8122 29.2852 48.8006 29.6204C48.7889 29.9556 48.687 30.2815 48.5056 30.5639L36.8337 48.7279C36.7012 48.9352 36.5289 49.1144 36.3268 49.2552C36.1247 49.396 35.8968 49.4958 35.6559 49.5486C35.4151 49.6015 35.1662 49.6065 34.9234 49.5634C34.6807 49.5203 34.4488 49.4298 34.2412 49.2972C34.0335 49.1647 33.8542 48.9926 33.7133 48.7908C33.5725 48.589 33.473 48.3615 33.4205 48.1214C33.368 47.8812 33.3635 47.6331 33.4074 47.3912C33.4512 47.1493 33.5425 46.9184 33.676 46.7117L33.6762 46.7114ZM43.4918 12.3683C43.8434 12.7188 44.041 13.1942 44.041 13.6899C44.041 14.1855 43.8434 14.6609 43.4918 15.0114L15.8523 42.5622C15.4999 42.9091 15.0241 43.1031 14.5288 43.1016C14.0335 43.1001 13.5589 42.9033 13.2087 42.5542C12.8585 42.2051 12.661 41.732 12.6595 41.2383C12.658 40.7446 12.8526 40.2703 13.2007 39.9191L40.8399 12.3683C41.014 12.1948 41.2207 12.057 41.4482 11.9631C41.6757 11.8691 41.9196 11.8208 42.1659 11.8208C42.4121 11.8208 42.656 11.8691 42.8835 11.9631C43.111 12.057 43.3177 12.1948 43.4918 12.3683ZM10.6056 8.45264C11.0802 6.72034 10.7793 5.41557 9.71154 4.57278C8.51623 3.63012 6.52604 3.46308 5.18061 4.19362C4.1585 4.74846 3.70557 5.70713 3.83448 7.04379C3.88202 7.53722 3.73096 8.02927 3.41453 8.41168C3.09811 8.7941 2.64224 9.03556 2.14722 9.08294C1.65219 9.13033 1.15855 8.97976 0.774904 8.66435C0.391254 8.34894 0.149015 7.89454 0.101478 7.40111C-0.172857 4.55841 1.02468 2.19312 3.38682 0.910897C6.03819 -0.528205 9.6765 -0.220994 12.0381 1.64143C14.296 3.4222 15.0922 6.26373 14.2227 9.43735C13.6358 11.5794 11.627 13.1419 9.3008 14.9514C8.04502 15.9281 6.69057 16.9817 5.55491 18.1637H13.322C13.8192 18.1637 14.2962 18.3606 14.6478 18.7111C14.9994 19.0616 15.197 19.5369 15.197 20.0326C15.197 20.5283 14.9994 21.0037 14.6478 21.3542C14.2962 21.7047 13.8192 21.9016 13.322 21.9016H1.91437C1.59659 21.9017 1.28401 21.8213 1.00596 21.6679C0.727919 21.5146 0.493537 21.2933 0.324829 21.0249C0.156121 20.7564 0.0586209 20.4497 0.0414855 20.1334C0.0243501 19.8171 0.0881412 19.5017 0.226869 19.2167C1.75323 16.081 4.53713 13.9156 6.99326 12.0051C8.6422 10.7224 10.3466 9.39658 10.6056 8.45264ZM60 30.0964C60 36.0108 58.2406 41.7923 54.9441 46.7099C51.6477 51.6276 46.9623 55.4604 41.4806 57.7237C35.9988 59.9871 29.9668 60.5792 24.1473 59.4254C18.3279 58.2716 12.9824 55.4235 8.78681 51.2414C5.99234 48.4711 3.77687 45.1757 2.26864 41.5462C0.760397 37.9167 -0.0106543 34.025 0.000111194 30.0964C0.000111194 29.6007 0.197655 29.1254 0.549285 28.7749C0.900915 28.4244 1.37783 28.2274 1.87511 28.2274C2.37239 28.2274 2.8493 28.4244 3.20093 28.7749C3.55256 29.1254 3.7501 29.6007 3.7501 30.0964C3.7501 44.5241 15.5258 56.2619 30.0001 56.2619C44.4743 56.2619 56.25 44.5241 56.25 30.0964C56.25 16.9978 46.4398 5.84461 33.4306 4.15285C33.1839 4.1242 32.9453 4.04696 32.7288 3.92563C32.5122 3.8043 32.322 3.64129 32.1692 3.44607C32.0164 3.25086 31.9041 3.02732 31.8387 2.78845C31.7733 2.54958 31.7562 2.30014 31.7883 2.05462C31.8205 1.8091 31.9012 1.57239 32.0259 1.35824C32.1506 1.1441 32.3168 0.956784 32.5147 0.807183C32.7126 0.657582 32.9384 0.548676 33.1789 0.486791C33.4194 0.424907 33.6699 0.411277 33.9157 0.446693C41.1317 1.39462 47.756 4.92468 52.5547 10.3794C57.3535 15.8341 59.9995 22.8415 60 30.0964Z" fill="url(#paint0_linear_1605_13345)"/>
<defs>
<linearGradient id="paint0_linear_1605_13345" x1="-7.6277" y1="15.0761" x2="70.6184" y2="18.6372" gradientUnits="userSpaceOnUse">
<stop stop-color="#BD0C70"/>
<stop offset="0.130208" stop-color="#E41476"/>
<stop offset="0.515625" stop-color="#A92CC9"/>
<stop offset="0.819688" stop-color="#02C8ED"/>
<stop offset="1" stop-color="white"/>
</linearGradient>
</defs>
</svg>
